<mxfile host="app.diagrams.net" modified="2023-05-22T23:22:28.903Z" agent="Mozilla/5.0 (Macintosh; Intel Mac OS X 10.15; rv:102.0) Gecko/20100101 Firefox/102.0" version="21.2.9" etag="i_qovQ3LC6lBL9h9awI2" type="github">
  <diagram name="Page-1" id="jdnSOQs_2GVln9v3W2_q">
    <mxGraphModel>
      <root>
        <mxCell id="0" />
        <mxCell id="1" parent="0" />
      </root>
    </mxGraphModel>
  </diagram>
</mxfile>
